<?xml version="1.0" encoding="UTF-8" standalone="no"?>
<svg
   xmlns:dc="http://purl.org/dc/elements/1.1/"
   xmlns:cc="http://creativecommons.org/ns#"
   xmlns:rdf="http://www.w3.org/1999/02/22-rdf-syntax-ns#"
   xmlns:svg="http://www.w3.org/2000/svg"
   xmlns="http://www.w3.org/2000/svg"
   xmlns:sodipodi="http://sodipodi.sourceforge.net/DTD/sodipodi-0.dtd"
   xmlns:inkscape="http://www.inkscape.org/namespaces/inkscape"
   height="167.48242"
   width="167.48633"
   version="1.1"
   viewBox="0 0 167.48633 167.48242"
   id="svg897"
   sodipodi:docname="logoSm.svg"
   inkscape:version="1.0.1 (0767f8302a, 2020-10-17)"
   inkscape:export-filename="/home/max/Pictures/spoofyLogoAlts.png"
   inkscape:export-xdpi="247.14"
   inkscape:export-ydpi="247.14">
  <metadata
     id="metadata903">
    <rdf:RDF>
      <cc:Work
         rdf:about="">
        <dc:format>image/svg+xml</dc:format>
        <dc:type
           rdf:resource="http://purl.org/dc/dcmitype/StillImage" />
        <dc:title></dc:title>
      </cc:Work>
    </rdf:RDF>
  </metadata>
  <defs
     id="defs901">
    <rect
       x="177.36897"
       y="-93.116074"
       width="403.08075"
       height="126.37944"
       id="rect928" />
  </defs>
  <sodipodi:namedview
     pagecolor="#ffffff"
     bordercolor="#666666"
     borderopacity="1"
     objecttolerance="10"
     gridtolerance="10"
     guidetolerance="10"
     inkscape:pageopacity="0"
     inkscape:pageshadow="2"
     inkscape:window-width="1920"
     inkscape:window-height="1016"
     id="namedview899"
     showgrid="false"
     inkscape:snap-bbox="true"
     inkscape:snap-bbox-midpoints="true"
     inkscape:bbox-nodes="true"
     inkscape:zoom="0.70078203"
     inkscape:cx="86.715067"
     inkscape:cy="212.92186"
     inkscape:window-x="0"
     inkscape:window-y="27"
     inkscape:window-maximized="1"
     inkscape:current-layer="svg897"
     inkscape:document-rotation="0" />
  <path
     id="path1152"
     style="fill:#ffffff;fill-opacity:1"
     d="M 83.742188,0 C 37.493188,0 0,37.493187 0,83.742187 c 0,46.251003 37.493188,83.740243 83.742188,83.740243 46.253992,0 83.744132,-37.48924 83.744132,-83.740243 0,-46.246 -37.49109,-83.73828075 -83.746085,-83.73828075 z m 46.474602,46.447265 c 0.52447,0.04431 1.06305,0.381932 1.89258,1.136719 1.51461,1.378122 2.83342,2.118684 7.92774,4.460938 1.65602,0.761406 3.8692,2.008809 4.91992,2.771484 l 1.91211,1.386719 -5.92578,-0.03125 c -6.79344,-0.0371 -8.15453,0.311239 -12.57813,3.21875 -3.20158,2.1043 -7.19726,5.866473 -7.19726,6.777343 -2e-5,0.53301 0.33445,0.63944 1.69726,0.53711 l 1.69727,-0.128906 0.26171,2.208984 c 0.14357,1.214418 0.48863,4.736878 0.76758,7.828125 0.27895,3.091247 0.66784,5.825592 0.86328,6.076172 0.40155,0.514841 -0.3205,0.754711 -3.53515,1.173828 l -2.06055,0.269531 -0.52344,-1.550781 c -0.28754,-0.853092 -1.08523,-3.900192 -1.77148,-6.769531 -0.84249,-3.522646 -1.43571,-5.252532 -1.83008,-5.326172 -0.32124,-0.05998 -1.60906,0.854991 -2.86133,2.033203 -1.25229,1.17821 -3.07004,2.56211 -4.03906,3.076172 -1.73997,0.92305 -1.77496,0.926797 -2.90625,0.185547 -1.04357,-0.683771 -3.73613,-5.613473 -3.30273,-6.046875 0.0925,-0.09248 0.83813,0.515703 1.65625,1.349609 l 1.48632,1.515625 3.42383,-3.566406 c 2.10484,-2.192297 4.86161,-5.750853 7.1543,-9.234375 2.83163,-4.302389 4.65086,-6.558467 7.55469,-9.365234 2.1037,-2.033397 4.25813,-3.804741 4.78711,-3.9375 0.18206,-0.04563 0.35447,-0.0636 0.52929,-0.04883 z M 28.375,76.103515 c 0.748761,-0.0031 1.294373,0.07806 1.351563,0.267579 0.271917,0.901126 -4.741426,13.924827 -5.609375,14.199218 -2.617448,0.827474 -7.262174,4.68307 -7.751953,5.44336 0.551049,-5.045782 4.901397,-8.948009 4.751953,-9.736328 -0.0673,-0.355001 1.54398,-8.371052 2.394531,-9.189454 0.584755,-0.562655 3.216016,-0.977475 4.863281,-0.984375 z m 6.132813,0.710938 c 0.38201,0 3.280605,0.886274 6.441406,1.970703 6.80807,2.335767 10.17509,3.375743 13.173828,4.068359 1.21442,0.280497 3.274827,0.842137 4.578125,1.248047 2.868279,0.893318 3.361348,0.618753 3.53125,-1.96875 0.07435,-1.132304 0.336571,-1.914248 0.679688,-2.027344 0.424963,-0.140076 0.501143,0.09297 0.314453,0.972657 -0.134979,0.636026 -0.450689,2.421173 -0.701172,3.966797 -0.250479,1.545623 -0.6404,3.034542 -0.865235,3.310546 -0.273831,0.336155 -1.640776,0.501954 -4.140624,0.501954 -4.013679,0 -5.001954,0.198307 -5.001954,1 0,0.281444 0.828637,2.987492 1.839844,6.013672 1.011203,3.0262 1.777868,5.555996 1.705078,5.621096 -0.937492,0.83822 -5.419275,3.21618 -5.421875,2.87695 -0.002,-0.2511 -0.913454,-2.08308 -2.027343,-4.07031 -1.113884,-1.98723 -2.528855,-4.925822 -3.142579,-6.531252 l -1.115234,-2.917969 0.904297,-0.841797 c 0.655774,-0.610947 0.781001,-0.963138 0.460937,-1.283203 -1.049305,-1.049306 -8.683263,-0.955364 -14.189453,0.173828 -1.275086,0.261504 -2.393115,0.399864 -2.484375,0.308594 -0.09127,-0.09126 0.944384,-2.916778 2.300781,-6.279297 1.846615,-4.577771 2.640088,-6.113281 3.160157,-6.113281 z m 68.349607,22.726562 c 0.0998,0.0093 0.19834,0.03442 0.27734,0.07227 0.15803,0.07571 0.2478,0.174501 0.3086,0.253901 0.1216,0.158784 0.153,0.270704 0.1875,0.382814 0.069,0.22421 0.10356,0.45428 0.13476,0.74805 0.0625,0.58755 0.0918,1.40247 0.0918,2.43359 0,1.05054 -0.041,1.94244 -0.11719,2.60547 -0.0381,0.33152 -0.0812,0.60108 -0.15234,0.84375 -0.0355,0.12134 -0.0708,0.23383 -0.16211,0.37891 -0.0913,0.14508 -0.3143,0.41992 -0.72461,0.41992 -0.5227,0 -0.81979,-0.37199 -0.96094,-0.6543 -0.13961,-0.27927 -0.19431,-0.57466 -0.19531,-0.89453 -0.11052,0.0273 -0.22589,0.0569 -0.38867,0.10157 -0.4204,0.11552 -0.99502,0.28387 -1.667968,0.48828 -1.345898,0.40881 -3.088794,0.96108 -4.830079,1.52734 -1.741284,0.56626 -3.482231,1.14674 -4.828125,1.61328 -0.672946,0.23328 -1.24681,0.43947 -1.667968,0.59766 -0.21058,0.0791 -0.383779,0.14616 -0.50586,0.19726 -0.122077,0.0511 -0.222247,0.11071 -0.154297,0.0664 -0.01738,0.0113 -0.0055,-0.0217 -0.02148,0.0547 -0.01598,0.0764 -0.01959,0.26254 0.04883,0.53515 0.09719,0.38722 0.161516,0.66115 0.166016,0.9668 0.0022,0.15282 0.05292,0.34903 -0.208985,0.66016 -0.13095,0.15556 -0.391586,0.28401 -0.597656,0.29101 -0.20607,0.007 -0.339417,-0.0521 -0.435547,-0.10156 -0.384536,-0.19785 -0.480978,-0.38783 -0.71289,-0.68164 -0.231913,-0.29381 -0.507879,-0.68406 -0.84961,-1.18359 -0.740287,-1.08215 -1.375181,-2.1293 -1.833984,-3.01368 -0.229402,-0.44219 -0.415869,-0.84384 -0.550781,-1.19922 -0.134912,-0.35536 -0.232422,-0.64215 -0.232422,-1.0039 0,-0.14287 0.0095,-0.41306 0.292968,-0.65039 0.283503,-0.23733 0.648744,-0.18921 0.804688,-0.13281 0.311889,0.11274 0.380611,0.22887 0.509766,0.35937 0.258309,0.26099 0.537296,0.62282 0.849609,1.08789 0.284121,0.42309 0.588717,0.8404 0.841797,1.16016 0.12654,0.15988 0.240282,0.29602 0.326172,0.39062 0.0032,0.004 7.06e-4,9.1e-4 0.0039,0.004 0.128922,-0.0159 0.320121,-0.0502 0.558594,-0.10938 0.508718,-0.12616 1.190778,-0.34409 1.888672,-0.61523 1.499756,-0.58267 5.107975,-1.80687 8.101562,-2.75195 l 4.935538,-1.55664 0.0859,-1.04297 a 0.7559811,0.7559811 0 0 0 0,-0.002 c 0.0387,-0.4713 0.11689,-0.93462 0.22071,-1.33398 0.10381,-0.39935 0.12232,-0.684 0.49414,-1.062504 0.04,-0.0408 0.0954,-0.08576 0.16406,-0.128903 a 0.7559811,0.7559811 0 0 1 0.20703,-0.0957 0.7559811,0.7559811 0 0 1 0.01,-0.0039 c 0.0882,-0.02438 0.18926,-0.03078 0.28906,-0.02148 z m -0.5586,4.990235 -0.38085,0.11914 c 0.15354,0.029 0.24325,0.12814 0.36523,0.20704 0.006,-0.105 0.0106,-0.21313 0.0156,-0.32618 z m -15.771476,5.15039 c -0.170607,0.0358 -0.350851,0.0777 -0.5,0.0937 -0.08964,0.0102 -0.178121,0.0105 -0.269531,0.01 0.126686,0.1948 0.199039,0.34838 0.333984,0.54688 0.08045,-0.25093 0.242832,-0.46261 0.435547,-0.6504 z" />
</svg>
