<?xml version="1.0" encoding="UTF-8" standalone="no"?>
<svg
   xmlns:dc="http://purl.org/dc/elements/1.1/"
   xmlns:cc="http://creativecommons.org/ns#"
   xmlns:rdf="http://www.w3.org/1999/02/22-rdf-syntax-ns#"
   xmlns:svg="http://www.w3.org/2000/svg"
   xmlns="http://www.w3.org/2000/svg"
   xmlns:sodipodi="http://sodipodi.sourceforge.net/DTD/sodipodi-0.dtd"
   xmlns:inkscape="http://www.inkscape.org/namespaces/inkscape"
   height="167.48242"
   width="536.97266"
   version="1.1"
   viewBox="0 0 536.97266 167.48242"
   id="svg897"
   sodipodi:docname="spoofyLogo.svg"
   inkscape:version="1.0.1 (0767f8302a, 2020-10-17)"
   inkscape:export-filename="/home/max/Pictures/spoofyLogoAlts.png"
   inkscape:export-xdpi="247.14"
   inkscape:export-ydpi="247.14">
  <metadata
     id="metadata903">
    <rdf:RDF>
      <cc:Work
         rdf:about="">
        <dc:format>image/svg+xml</dc:format>
        <dc:type
           rdf:resource="http://purl.org/dc/dcmitype/StillImage" />
        <dc:title></dc:title>
      </cc:Work>
    </rdf:RDF>
  </metadata>
  <defs
     id="defs901">
    <rect
       x="177.36897"
       y="-93.116074"
       width="403.08075"
       height="126.37944"
       id="rect928" />
  </defs>
  <sodipodi:namedview
     pagecolor="#ffffff"
     bordercolor="#666666"
     borderopacity="1"
     objecttolerance="10"
     gridtolerance="10"
     guidetolerance="10"
     inkscape:pageopacity="0"
     inkscape:pageshadow="2"
     inkscape:window-width="1920"
     inkscape:window-height="1016"
     id="namedview899"
     showgrid="false"
     inkscape:snap-bbox="true"
     inkscape:snap-bbox-midpoints="true"
     inkscape:bbox-nodes="true"
     inkscape:zoom="0.70078203"
     inkscape:cx="539.45179"
     inkscape:cy="212.00357"
     inkscape:window-x="0"
     inkscape:window-y="27"
     inkscape:window-maximized="1"
     inkscape:current-layer="svg897" />
  <g
     id="g1154"
     transform="translate(-0.25390625,-0.27734375)">
    <g
       aria-label="Spoofy"
       transform="translate(12.460768,126.81119)"
       id="g1150"
       style="font-style:normal;font-weight:normal;font-size:96px;line-height:1.25;font-family:sans-serif;white-space:pre;shape-inside:url(#rect928);fill:#ffffff;fill-opacity:1;stroke:none">
      <path
         id="path1148"
         style="font-style:normal;font-variant:normal;font-weight:bold;font-stretch:normal;font-size:96px;font-family:Montserrat;-inkscape-font-specification:'Montserrat Bold';fill:#ffffff;fill-opacity:1"
         d="m 471.6582,49.929688 c -6.336,-10e-7 -11.2632,1.727593 -14.7832,5.183593 -3.456,3.456 -5.18359,8.127625 -5.18359,14.015625 v 2.304688 h -7.96875 v 11.519531 h 7.96875 v 38.976565 h 14.97461 V 82.953125 h 16.56836 l 17.41601,40.511715 -0.19141,0.48047 c -1.024,2.304 -2.17703,3.93649 -3.45703,4.89649 -1.28,1.024 -2.94223,1.53515 -4.99023,1.53515 -1.472,0 -2.97767,-0.28728 -4.51367,-0.86328 -1.472,-0.576 -2.78355,-1.37639 -3.93555,-2.40039 l -5.4707,10.65625 c 1.664,1.472 3.80764,2.62308 6.43164,3.45508 2.624,0.832 5.27879,1.24805 7.96679,1.24805 4.928,0 9.12018,-1.21644 12.57618,-3.64844 3.52,-2.432 6.46403,-6.62417 8.83203,-12.57617 l 23.32812,-54.814456 h -14.40039 l -14.59179,35.039066 -14.4961,-35.039066 h -14.20703 -1.24805 -12 v -2.208985 c 0,-4.992 2.27241,-7.488281 6.81641,-7.488281 2.304,0 4.31887,0.608219 6.04687,1.824219 l 3.93555,-10.847656 c -1.344,-0.896 -3.03989,-1.567625 -5.08789,-2.015625 -1.984,-0.512 -4.09594,-0.767579 -6.33594,-0.767578 z m -249.47656,3.646484 c -6.144,0 -11.36044,0.929156 -15.64844,2.785156 -4.224,1.856 -7.3919,4.383984 -9.5039,7.583984 -2.112,3.136 -3.16797,6.656547 -3.16797,10.560547 0,4.48 1.15303,8.063953 3.45703,10.751953 2.368,2.688 5.18327,4.639469 8.44726,5.855469 3.264,1.216 7.45618,2.432438 12.57618,3.648438 3.328,0.768 5.95304,1.471328 7.87304,2.111328 1.984,0.64 3.58283,1.503797 4.79883,2.591797 1.28,1.023996 1.91992,2.335546 1.91992,3.935546 0,2.176 -1.05596,3.93725 -3.16797,5.28125 -2.11199,1.28 -5.37501,1.91992 -9.79101,1.91992 -3.968,0 -7.9363,-0.63992 -11.9043,-1.91992 -3.968,-1.28 -7.39148,-2.97589 -10.27148,-5.08789 l -5.28125,11.71094 c 3.008,2.304 6.9763,4.19206 11.9043,5.66406 4.99199,1.408 10.14307,2.11133 15.45507,2.11133 6.144,0 11.36044,-0.92721 15.64844,-2.7832 4.288,-1.85601 7.48761,-4.35229 9.59961,-7.48829 2.176,-3.2 3.26562,-6.72054 3.26562,-10.56054 10e-6,-4.480003 -1.18473,-8.0303 -3.55273,-10.6543 -2.304,-2.624 -5.08756,-4.545719 -8.35156,-5.761719 -3.264,-1.216 -7.45617,-2.430484 -12.57617,-3.646484 -4.928,-1.088 -8.60902,-2.175672 -11.04102,-3.263672 -2.368,-1.152 -3.55078,-2.881547 -3.55078,-5.185547 0,-2.304 1.02426,-4.160359 3.07226,-5.568359 2.112,-1.408 5.34332,-2.111328 9.69532,-2.111328 6.208,0 12.41504,1.76125 18.62304,5.28125 l 4.80079,-11.808594 c -3.072,-1.92 -6.65596,-3.392016 -10.75196,-4.416016 -4.096,-1.024 -8.28817,-1.537109 -12.57617,-1.537109 z m 66.40039,15.9375 c -7.104,0 -12.51066,2.23875 -16.22265,6.71875 V 70.28125 h -14.30469 v 70.27148 h 14.97656 v -24.0957 c 3.776,4.16 8.95878,6.24024 15.55078,6.24024 4.8,0 9.15264,-1.08768 13.05664,-3.26368 3.968,-2.24 7.0725,-5.3445 9.3125,-9.3125 2.24,-4.032 3.35938,-8.70362 3.35938,-14.015621 0,-5.312 -1.11938,-9.951922 -3.35938,-13.919922 -2.24,-4.032 -5.3445,-7.1365 -9.3125,-9.3125 -3.904,-2.24 -8.25664,-3.359375 -13.05664,-3.359375 z m 60.23633,0 c -5.44,0 -10.3355,1.151078 -14.6875,3.455078 -4.288,2.24 -7.64808,5.376203 -10.08008,9.408203 -2.432,4.032 -3.64844,8.608516 -3.64844,13.728516 0,5.120001 1.21644,9.694561 3.64844,13.726561 2.432,4.032 5.79208,7.20186 10.08008,9.50586 4.352,2.24 9.2475,3.35938 14.6875,3.35938 5.44,0 10.3038,-1.11938 14.5918,-3.35938 4.288,-2.304 7.64807,-5.47386 10.08007,-9.50586 2.432,-4.032 3.64844,-8.60656 3.64844,-13.726561 0,-5.12 -1.21644,-9.696516 -3.64844,-13.728516 -2.432,-4.032 -5.79207,-7.168203 -10.08007,-9.408203 -4.288,-2.304 -9.1518,-3.455078 -14.5918,-3.455078 z m 62.8125,0 c -5.44,0 -10.3355,1.151078 -14.6875,3.455078 -4.288,2.24 -7.64808,5.376203 -10.08008,9.408203 -2.432,4.032 -3.64844,8.608516 -3.64844,13.728516 0,5.120001 1.21644,9.694561 3.64844,13.726561 2.432,4.032 5.79208,7.20186 10.08008,9.50586 4.352,2.24 9.2475,3.35938 14.6875,3.35938 5.44,0 10.3038,-1.11938 14.5918,-3.35938 4.288,-2.304 7.64807,-5.47386 10.08007,-9.50586 2.432,-4.032 3.64844,-8.60656 3.64844,-13.726561 0,-5.12 -1.21644,-9.696516 -3.64844,-13.728516 -2.432,-4.032 -5.79207,-7.168203 -10.08007,-9.408203 -4.288,-2.304 -9.1518,-3.455078 -14.5918,-3.455078 z M 285.99023,81.800781 c 3.84,0 6.97621,1.311547 9.40821,3.935547 2.496,2.56 3.74414,6.017141 3.74414,10.369141 0,4.352001 -1.24814,7.838891 -3.74414,10.462891 -2.432,2.56 -5.56821,3.83984 -9.40821,3.83984 -3.84,0 -7.0079,-1.27984 -9.5039,-3.83984 -2.432,-2.624 -3.64844,-6.11089 -3.64844,-10.462891 0,-4.352 1.21644,-7.809141 3.64844,-10.369141 2.496,-2.624 5.6639,-3.935547 9.5039,-3.935547 z m 62.82813,0 c 3.84,0 6.9762,1.311547 9.4082,3.935547 2.496,2.56 3.74414,6.017141 3.74414,10.369141 0,4.352001 -1.24814,7.838891 -3.74414,10.462891 -2.432,2.56 -5.5682,3.83984 -9.4082,3.83984 -3.84,0 -7.00791,-1.27984 -9.50391,-3.83984 -2.496,-2.624 -3.74414,-6.11089 -3.74414,-10.462891 0,-4.352 1.24814,-7.809141 3.74414,-10.369141 2.496,-2.624 5.66391,-3.935547 9.50391,-3.935547 z m 62.8125,0 c 3.84,0 6.9762,1.311547 9.4082,3.935547 2.496,2.56 3.74414,6.017141 3.74414,10.369141 0,4.352001 -1.24814,7.838891 -3.74414,10.462891 -2.432,2.56 -5.5682,3.83984 -9.4082,3.83984 -3.84,0 -7.00791,-1.27984 -9.50391,-3.83984 -2.496,-2.624 -3.74414,-6.11089 -3.74414,-10.462891 0,-4.352 1.24814,-7.809141 3.74414,-10.369141 2.496,-2.624 5.66391,-3.935547 9.50391,-3.935547 z"
         transform="translate(-12.460768,-126.81119)" />
    </g>
    <path
       id="path1152"
       style="fill:#f86d09;fill-opacity:1"
       d="m 83.996094,0.27734375 c -46.249,0 -83.74218775,37.49318725 -83.74218775,83.74218725 0,46.250999 37.49318775,83.740239 83.74218775,83.740239 46.253996,0 83.744136,-37.48924 83.744136,-83.740239 0,-46.246 -37.49109,-83.738281 -83.746089,-83.738281 z M 130.4707,46.724609 c 0.52447,0.04431 1.06305,0.381932 1.89258,1.136719 1.51461,1.378122 2.83342,2.118684 7.92774,4.460938 1.65602,0.761406 3.8692,2.008809 4.91992,2.771484 l 1.91211,1.386719 -5.92578,-0.03125 c -6.79344,-0.0371 -8.15453,0.311239 -12.57813,3.21875 -3.20158,2.1043 -7.19726,5.866473 -7.19726,6.777343 -2e-5,0.53301 0.33445,0.63944 1.69726,0.53711 l 1.69727,-0.128906 0.26171,2.208984 c 0.14357,1.214418 0.48863,4.736878 0.76758,7.828125 0.27895,3.091247 0.66784,5.825592 0.86328,6.076172 0.40155,0.514841 -0.3205,0.754711 -3.53515,1.173828 l -2.06055,0.269531 -0.52344,-1.550781 c -0.28754,-0.853092 -1.08523,-3.900192 -1.77148,-6.769531 -0.84249,-3.522646 -1.43571,-5.252532 -1.83008,-5.326172 -0.32124,-0.05998 -1.60906,0.854991 -2.86133,2.033203 -1.25229,1.17821 -3.07004,2.56211 -4.03906,3.076172 -1.73997,0.92305 -1.77496,0.926797 -2.90625,0.185547 -1.04357,-0.683771 -3.73613,-5.613473 -3.30273,-6.046875 0.0925,-0.09248 0.83813,0.515703 1.65625,1.349609 l 1.48632,1.515625 3.42383,-3.566406 c 2.10484,-2.192297 4.86161,-5.750853 7.1543,-9.234375 2.83163,-4.302389 4.65086,-6.558467 7.55469,-9.365234 2.1037,-2.033397 4.25813,-3.804741 4.78711,-3.9375 0.18206,-0.04563 0.35447,-0.0636 0.52929,-0.04883 z M 28.628906,76.380859 c 0.748761,-0.0031 1.294373,0.07806 1.351563,0.267579 0.271917,0.901126 -4.741426,13.924827 -5.609375,14.199218 -2.617448,0.827474 -7.262174,4.68307 -7.751953,5.44336 0.551049,-5.045782 4.901397,-8.948009 4.751953,-9.736328 -0.0673,-0.355001 1.54398,-8.371052 2.394531,-9.189454 0.584755,-0.562655 3.216016,-0.977475 4.863281,-0.984375 z m 6.132813,0.710938 c 0.38201,0 3.280605,0.886274 6.441406,1.970703 6.80807,2.335767 10.17509,3.375743 13.173828,4.068359 1.21442,0.280497 3.274827,0.842137 4.578125,1.248047 2.868279,0.893318 3.361348,0.618753 3.53125,-1.96875 0.07435,-1.132304 0.336571,-1.914248 0.679688,-2.027344 0.424963,-0.140076 0.501143,0.09297 0.314453,0.972657 -0.134979,0.636026 -0.450689,2.421173 -0.701172,3.966797 -0.250479,1.545623 -0.6404,3.034542 -0.865235,3.310546 -0.273831,0.336155 -1.640776,0.501954 -4.140624,0.501954 -4.013679,0 -5.001954,0.198307 -5.001954,1 0,0.281444 0.828637,2.987492 1.839844,6.013672 1.011203,3.0262 1.777868,5.555992 1.705078,5.621092 -0.937492,0.83822 -5.419275,3.21618 -5.421875,2.87695 -0.002,-0.2511 -0.913454,-2.08308 -2.027343,-4.07031 -1.113884,-1.987226 -2.528855,-4.925818 -3.142579,-6.531248 l -1.115234,-2.917969 0.904297,-0.841797 c 0.655774,-0.610947 0.781001,-0.963138 0.460937,-1.283203 -1.049305,-1.049306 -8.683263,-0.955364 -14.189453,0.173828 -1.275086,0.261504 -2.393115,0.399864 -2.484375,0.308594 -0.09127,-0.09126 0.944384,-2.916778 2.300781,-6.279297 1.846615,-4.577771 2.640088,-6.113281 3.160157,-6.113281 z m 68.349611,22.726562 c 0.0998,0.0093 0.19834,0.03442 0.27734,0.07227 0.15803,0.07571 0.2478,0.174501 0.3086,0.253901 0.1216,0.15878 0.153,0.2707 0.1875,0.38281 0.069,0.22421 0.10356,0.45428 0.13476,0.74805 0.0625,0.58755 0.0918,1.40247 0.0918,2.43359 0,1.05054 -0.041,1.94244 -0.11719,2.60547 -0.0381,0.33152 -0.0812,0.60108 -0.15234,0.84375 -0.0355,0.12134 -0.0708,0.23383 -0.16211,0.37891 -0.0913,0.14508 -0.3143,0.41992 -0.72461,0.41992 -0.5227,0 -0.81979,-0.37199 -0.96094,-0.6543 -0.13961,-0.27927 -0.19431,-0.57466 -0.19531,-0.89453 -0.11052,0.0273 -0.22589,0.0569 -0.38867,0.10157 -0.4204,0.11552 -0.99502,0.28387 -1.667972,0.48828 -1.345898,0.40881 -3.088794,0.96108 -4.830079,1.52734 -1.741284,0.56626 -3.482231,1.14674 -4.828125,1.61328 -0.672946,0.23328 -1.24681,0.43947 -1.667968,0.59766 -0.21058,0.0791 -0.383779,0.14616 -0.50586,0.19726 -0.122077,0.0511 -0.222247,0.11071 -0.154297,0.0664 -0.01738,0.0113 -0.0055,-0.0217 -0.02148,0.0547 -0.01598,0.0764 -0.01959,0.26254 0.04883,0.53515 0.09719,0.38722 0.161516,0.66115 0.166016,0.9668 0.0022,0.15282 0.05292,0.34903 -0.208985,0.66016 -0.13095,0.15556 -0.391586,0.28401 -0.597656,0.29101 -0.20607,0.007 -0.339417,-0.0521 -0.435547,-0.10156 -0.384536,-0.19785 -0.480978,-0.38783 -0.71289,-0.68164 -0.231913,-0.29381 -0.507879,-0.68406 -0.84961,-1.18359 -0.740287,-1.08215 -1.375181,-2.1293 -1.833984,-3.01368 -0.229402,-0.44219 -0.415869,-0.84384 -0.550781,-1.19922 -0.134912,-0.35536 -0.232422,-0.64215 -0.232422,-1.0039 0,-0.14287 0.0095,-0.41306 0.292968,-0.65039 0.283503,-0.23733 0.648744,-0.18921 0.804688,-0.13281 0.311889,0.11274 0.380611,0.22887 0.509766,0.35937 0.258309,0.26099 0.537296,0.62282 0.849609,1.08789 0.284121,0.42309 0.588717,0.8404 0.841797,1.16016 0.12654,0.15988 0.240282,0.29602 0.326172,0.39062 0.0032,0.004 7.06e-4,9.1e-4 0.0039,0.004 0.128922,-0.0159 0.320121,-0.0502 0.558594,-0.10938 0.508718,-0.12616 1.190778,-0.34409 1.888672,-0.61523 1.499756,-0.58267 5.107975,-1.80687 8.101562,-2.75195 l 4.935542,-1.55664 0.0859,-1.04297 a 0.7559811,0.7559811 0 0 0 0,-0.002 c 0.0387,-0.4713 0.11689,-0.93462 0.22071,-1.33398 0.10381,-0.39935 0.12232,-0.684 0.49414,-1.0625 0.04,-0.0408 0.0954,-0.08576 0.16406,-0.128903 a 0.7559811,0.7559811 0 0 1 0.20703,-0.0957 0.7559811,0.7559811 0 0 1 0.01,-0.0039 c 0.0882,-0.02438 0.18926,-0.03078 0.28906,-0.02148 z m -0.5586,4.990231 -0.38085,0.11914 c 0.15354,0.029 0.24325,0.12814 0.36523,0.20704 0.006,-0.105 0.0106,-0.21313 0.0156,-0.32618 z m -15.77148,5.15039 c -0.170607,0.0358 -0.350851,0.0777 -0.5,0.0937 -0.08964,0.0102 -0.178121,0.0105 -0.269531,0.01 0.126686,0.1948 0.199039,0.34838 0.333984,0.54688 0.08045,-0.25093 0.242832,-0.46261 0.435547,-0.6504 z" />
  </g>
</svg>
