<?xml version="1.0" standalone="no"?>
<!DOCTYPE svg PUBLIC "-//W3C//DTD SVG 20010904//EN"
 "http://www.w3.org/TR/2001/REC-SVG-20010904/DTD/svg10.dtd">
<svg version="1.0" xmlns="http://www.w3.org/2000/svg"
 width="475.000000pt" height="475.000000pt" viewBox="0 0 475.000000 475.000000"
 preserveAspectRatio="xMidYMid meet">
<metadata>
Created by potrace 1.14, written by Peter Selinger 2001-2017
</metadata>
<g transform="translate(0.000000,475.000000) scale(0.100000,-0.100000)"
fill="#000000" stroke="none">
<path d="M2169 4136 c-2 -2 -31 -6 -64 -9 -33 -4 -71 -9 -85 -12 -14 -2 -50
-10 -80 -16 -193 -39 -431 -154 -617 -298 -242 -187 -420 -425 -533 -710 -23
-60 -74 -244 -84 -306 -28 -175 -29 -501 -1 -629 2 -11 6 -34 9 -51 28 -205
153 -523 279 -712 338 -506 935 -845 1492 -846 486 -1 912 158 1173 438 l73
78 -5 51 c-3 28 -8 69 -10 91 -3 22 -8 67 -11 100 -3 33 -8 83 -11 110 -3 28
-7 68 -9 90 -2 22 -6 67 -9 100 -12 107 -15 139 -21 200 -3 33 -8 78 -10 100
-2 22 -9 87 -15 145 -6 58 -13 121 -15 140 -2 19 -7 67 -11 105 -3 39 -8 81
-9 95 -1 14 -6 61 -10 105 -5 44 -9 89 -11 100 -1 11 -3 33 -3 48 l-1 28 -227
-6 c-126 -4 -271 -8 -323 -10 -52 -2 -207 -7 -345 -10 -137 -4 -279 -8 -315
-10 -36 -2 -93 -4 -128 -4 l-62 -1 5 -67 c5 -72 10 -170 21 -398 4 -77 8 -153
9 -170 2 -16 3 -44 4 -61 l1 -31 268 2 c147 1 273 -1 280 -3 8 -3 12 -32 12
-97 l0 -93 -32 -20 c-85 -52 -241 -70 -373 -44 -184 36 -352 165 -434 332 -61
126 -82 220 -84 370 -1 108 4 162 17 205 2 6 6 24 11 40 21 81 111 225 179
288 103 95 210 157 346 198 111 33 285 31 530 -6 24 -4 47 -8 50 -10 3 -2 25
-6 49 -10 24 -3 71 -15 105 -26 33 -10 64 -19 67 -19 4 0 5 100 3 223 -2 122
-6 332 -8 466 -4 278 5 252 -101 301 -113 53 -291 101 -460 125 -43 7 -461 16
-466 11z"/>
</g>
</svg>
